# xmcd CD database file
#
# Track frame offsets:
#	150
#	12810
#	27699
#	46149
#	67802
#	81316
#	92661
#	110500
#	124106
#	135184
#	160667
#	173067
#	196715
#	208070
#	231283
#	245817
#
# Disc length: 3506 seconds
#
# Revision: 0
# Processed by: cddbd v1.5.1PL0 Copyright (c) Steve Scherf et al.
# Submitted via: CDex 1.51
#
DISCID=cd0db010
DTITLE=Little Joe Washington - Houston Guitar Blues
DYEAR=1900
DGENRE=Blues
TTITLE0=Hard Way 6
TTITLE1=Someone Loves Me
TTITLE2=I Feel Alright
TTITLE3=Little Girl
TTITLE4=Last Tear
TTITLE5=Bossa Nova part2
TTITLE6=New York
TTITLE7=Take My Hand
TTITLE8=Song For My Father
TTITLE9=Don't Do It
TTITLE10=5 Spot
TTITLE11=How Long
TTITLE12=Bye Bye
TTITLE13=After Hours Blues
TTITLE14=Apricot
TTITLE15=Still My Baby
EXTD=
EXTT0=
EXTT1=
EXTT2=
EXTT3=
EXTT4=
EXTT5=
EXTT6=
EXTT7=
EXTT8=
EXTT9=
EXTT10=
EXTT11=
EXTT12=
EXTT13=
EXTT14=
EXTT15=
PLAYORDER=
